<?xml version="1.0" encoding="utf-8"?>
<!-- Generator: Adobe Illustrator 24.1.2, SVG Export Plug-In . SVG Version: 6.00 Build 0)  -->
<svg version="1.1" id="Слой_1" xmlns="http://www.w3.org/2000/svg" xmlns:xlink="http://www.w3.org/1999/xlink" x="0px" y="0px"
	 viewBox="0 0 40 40" style="enable-background:new 0 0 40 40;" xml:space="preserve">
<g>
	<defs>
		<rect id="SVGID_1_" y="0" width="40" height="40"/>
	</defs>
	<clipPath id="SVGID_2_">
		<use xlink:href="#SVGID_1_"  style="overflow:visible;"/>
	</clipPath>
	<g style="clip-path:url(#SVGID_2_);">
		
			<linearGradient id="SVGID_3_" gradientUnits="userSpaceOnUse" x1="2.8258" y1="37.3498" x2="32.8167" y2="1.3515" gradientTransform="matrix(1 0 0 -1 0 42)">
			<stop  offset="0" style="stop-color:#FED600"/>
			<stop  offset="1" style="stop-color:#FE2323"/>
		</linearGradient>
		<path style="fill:url(#SVGID_3_);" d="M25.9,10.9c0-1.4,1.1-2.5,2.5-2.5s2.5,1.1,2.5,2.5c0,1.4-1.1,2.5-2.5,2.5
			S25.9,12.3,25.9,10.9z M10,38.4v-2.8l2.8,0c0.9,0,1.6-0.7,1.6-1.6v-2.8h2.8c0.9,0,1.6-0.7,1.6-1.6c0-0.9-0.7-1.6-1.6-1.6h-4.4
			c-0.9,0-1.6,0.7-1.6,1.6v2.8l-2.8,0c-0.9,0-1.6,0.7-1.6,1.6v2.8H3.1v-4.7L17,18.3c0.5-0.5,0.6-1.3,0.2-1.9c-0.5-0.9-1-1.8-1.5-2.8
			c-0.5-1.2-0.3-2.5,0.7-3.4L22.5,4c0.9-0.9,2.2-1.1,3.3-0.7c1.8,0.7,4.4,2,6.6,4.1c2.2,2.2,3.5,4.8,4.2,6.7
			c0.5,1.2,0.2,2.5-0.7,3.3l-6.2,6.2c-0.9,0.9-2.3,1.2-3.4,0.7c-1-0.4-1.9-0.9-2.8-1.4c-0.7-0.5-1.7-0.2-2.1,0.5
			c-0.5,0.7-0.2,1.7,0.5,2.1c1,0.6,2.1,1.2,3.2,1.7c2.4,1,5,0.5,6.8-1.3l6.2-6.2c1.8-1.8,2.3-4.4,1.4-6.7c-0.8-2.1-2.4-5.2-4.9-7.7
			c-2.5-2.5-5.6-4-7.7-4.8c-2.3-0.9-4.9-0.3-6.7,1.4l-6.1,6.1c-1.8,1.8-2.3,4.6-1.3,6.9c0.3,0.7,0.7,1.4,1,2.1L0.5,30.5
			C0.2,30.7,0,31.1,0,31.6v6.9C0,39.3,0.7,40,1.6,40h6.9C9.3,40,10,39.3,10,38.4z"/>
	</g>
</g>
</svg>
