<?xml version="1.0" encoding="utf-8"?>
<!-- Generator: Adobe Illustrator 24.1.2, SVG Export Plug-In . SVG Version: 6.00 Build 0)  -->
<svg version="1.1" id="Слой_1" xmlns="http://www.w3.org/2000/svg" xmlns:xlink="http://www.w3.org/1999/xlink" x="0px" y="0px"
	 viewBox="0 0 40 40" style="enable-background:new 0 0 40 40;" xml:space="preserve">
<g>
	<defs>
		<rect id="SVGID_1_" y="0" width="40" height="40"/>
	</defs>
	<clipPath id="SVGID_2_">
		<use xlink:href="#SVGID_1_"  style="overflow:visible;"/>
	</clipPath>
	<g style="clip-path:url(#SVGID_2_);">
		
			<linearGradient id="SVGID_3_" gradientUnits="userSpaceOnUse" x1="4.1867" y1="38.4888" x2="34.1867" y2="2.4888" gradientTransform="matrix(1 0 0 -1 0 42)">
			<stop  offset="0" style="stop-color:#FED600"/>
			<stop  offset="1" style="stop-color:#FE2323"/>
		</linearGradient>
		<path style="fill:url(#SVGID_3_);" d="M38.4,27.5c0.9,0,1.6-0.7,1.6-1.6V15.1c0-2.1-1.1-4.1-2.9-5.3l-3.8-2.4V1.6
			c0-0.9-0.7-1.6-1.6-1.6H8.2C7.3,0,6.6,0.7,6.6,1.6v5.8L2.9,9.8C1.1,10.9,0,12.9,0,15v18.7C0,37.2,2.8,40,6.3,40h27.5
			c3.4,0,6.3-2.8,6.3-6.3c0-0.9-0.7-1.6-1.6-1.6s-1.6,0.7-1.6,1.6c0,1.7-1.4,3.1-3.1,3.1H6.3c-1.7,0-3.1-1.4-3.1-3.1V17.1l13.6,8.4
			c1,0.6,2.2,0.9,3.3,0.9c1.1,0,2.3-0.3,3.3-0.9l13.6-8.4v8.9C36.9,26.8,37.6,27.5,38.4,27.5z M35.4,12.4c0.5,0.3,0.8,0.7,1.1,1.2
			l-3.2,2v-4.5L35.4,12.4z M4.6,12.4l2.1-1.3v4.5l-3.2-2C3.7,13.1,4.1,12.7,4.6,12.4z M21.7,22.9c-1,0.6-2.3,0.6-3.3,0l-8.6-5.3V3.1
			h20.5v14.4L21.7,22.9z M21.6,12c0,0.9-0.7,1.6-1.6,1.6s-1.6-0.7-1.6-1.6c0-0.9,0.7-1.6,1.6-1.6S21.6,11.1,21.6,12z M27.2,12
			c0,0.9-0.7,1.6-1.6,1.6s-1.6-0.7-1.6-1.6c0-0.9,0.7-1.6,1.6-1.6S27.2,11.1,27.2,12z M15.9,12c0,0.9-0.7,1.6-1.6,1.6
			c-0.9,0-1.6-0.7-1.6-1.6c0-0.9,0.7-1.6,1.6-1.6C15.2,10.4,15.9,11.1,15.9,12z"/>
	</g>
</g>
</svg>
