<?xml version="1.0" encoding="utf-8"?>
<!-- Generator: Adobe Illustrator 24.1.2, SVG Export Plug-In . SVG Version: 6.00 Build 0)  -->
<svg version="1.1" id="Слой_1" xmlns="http://www.w3.org/2000/svg" xmlns:xlink="http://www.w3.org/1999/xlink" x="0px" y="0px"
	 viewBox="0 0 40 40" style="enable-background:new 0 0 40 40;" xml:space="preserve">
<g>
	<defs>
		<rect id="SVGID_1_" y="0" width="40" height="40"/>
	</defs>
	<clipPath id="SVGID_2_">
		<use xlink:href="#SVGID_1_"  style="overflow:visible;"/>
	</clipPath>
	<g style="clip-path:url(#SVGID_2_);">
		
			<linearGradient id="SVGID_3_" gradientUnits="userSpaceOnUse" x1="7.1291" y1="40.9406" x2="37.129" y2="4.9406" gradientTransform="matrix(1 0 0 -1 0 42)">
			<stop  offset="0" style="stop-color:#FED600"/>
			<stop  offset="1" style="stop-color:#FE2323"/>
		</linearGradient>
		<path style="fill:url(#SVGID_3_);" d="M30.6,33.8H9.4c-5.2,0-9.4-4.2-9.4-9.4V11.6c0-5.2,4.2-9.4,9.4-9.4h10.5
			c0.9,0,1.6,0.7,1.6,1.6c0,0.9-0.7,1.6-1.6,1.6H9.4c-3.4,0-6.3,2.8-6.3,6.2v12.8c0,3.4,2.8,6.2,6.2,6.2h21.3c3.4,0,6.3-2.8,6.3-6.3
			v-5.7c0-0.9,0.7-1.6,1.6-1.6s1.6,0.7,1.6,1.6v5.7C40,29.5,35.8,33.8,30.6,33.8z M20.4,13c0-2.7-2.2-4.9-4.9-4.9
			c-2.7,0-4.9,2.2-4.9,4.9s2.2,4.9,4.9,4.9C18.2,17.9,20.4,15.7,20.4,13z M17.3,13c0,1-0.8,1.8-1.8,1.8c-1,0-1.8-0.8-1.8-1.8
			s0.8-1.8,1.8-1.8C16.5,11.2,17.3,12,17.3,13z M29.1,38.4c0-0.9-0.7-1.6-1.6-1.6h-15c-0.9,0-1.6,0.7-1.6,1.6c0,0.9,0.7,1.6,1.6,1.6
			h15C28.4,40,29.1,39.3,29.1,38.4z M20.4,27.4c-0.9,0-1.6-0.7-1.6-1.6c0-1.7-1.4-3.1-3.2-3.1h-0.9c-1.7,0-3.2,1.4-3.2,3.1
			c0,0.9-0.7,1.6-1.6,1.6c-0.9,0-1.6-0.7-1.6-1.6c0-3.4,2.8-6.3,6.3-6.3h0.9c3.5,0,6.3,2.8,6.3,6.3C22,26.7,21.3,27.4,20.4,27.4z
			 M27.4,15.5c0.2,0,0.5,0.1,0.7,0.2c2.3,0.9,3.7,0.9,3.7,0.9c2.2,0,4.3-0.8,5.8-2.4c1.6-1.5,2.4-3.6,2.5-5.8c0-2.2-0.8-4.3-2.4-5.9
			C36.1,0.9,34,0,31.8,0c-2.2,0-4.3,0.9-5.9,2.4c-1.6,1.6-2.4,3.7-2.4,5.9l0,6.6c0,0.6,0.4,1.2,1,1.4c0.2,0.1,0.4,0.1,0.6,0.1
			C26.1,16.5,26.4,15.5,27.4,15.5z M31.7,13.4c-0.8,0-1.6-0.2-2.3-0.5c-0.9-0.4-1.9-0.6-2.8-0.4l0-4.1c0,0,0,0,0,0
			c0-1.4,0.5-2.7,1.5-3.6c1-1,2.3-1.5,3.6-1.5c1.4,0,2.7,0.5,3.6,1.5c1,1,1.5,2.3,1.5,3.7C36.8,11.1,34.5,13.4,31.7,13.4
			C31.7,13.4,31.7,13.4,31.7,13.4C31.7,13.4,31.7,13.4,31.7,13.4z"/>
	</g>
</g>
</svg>
