<?xml version="1.0" encoding="utf-8"?>
<!-- Generator: Adobe Illustrator 24.1.2, SVG Export Plug-In . SVG Version: 6.00 Build 0)  -->
<svg version="1.1" id="Слой_1" xmlns="http://www.w3.org/2000/svg" xmlns:xlink="http://www.w3.org/1999/xlink" x="0px" y="0px"
	 viewBox="0 0 70 70" style="enable-background:new 0 0 70 70;" xml:space="preserve">
<style type="text/css">
	.st0{fill:url(#SVGID_1_);}
	.st1{fill:#FFFFFF;}
	.st2{fill:url(#SVGID_2_);}
	.st3{fill:url(#SVGID_3_);}
</style>
<linearGradient id="SVGID_1_" gradientUnits="userSpaceOnUse" x1="9.4672" y1="67.6393" x2="61.9672" y2="4.6393" gradientTransform="matrix(1 0 0 -1 0 72)">
	<stop  offset="0" style="stop-color:#FED600"/>
	<stop  offset="1" style="stop-color:#FE2323"/>
</linearGradient>
<circle class="st0" cx="35" cy="35" r="35"/>
<path class="st1" d="M52.6,24c0.7,1.2,0.6,2.6-0.2,3.7L33.9,51.8c-0.8,1-2,1.5-3.3,1.3c-1.3-0.2-2.3-1.2-2.6-2.4L25.3,41l-0.3-1
	l-0.7-0.8L17.2,32c-0.9-0.9-1.2-2.2-0.8-3.4c0.4-1.2,1.5-2.1,2.7-2.2l30.1-3.9C50.6,22.2,51.9,22.8,52.6,24z"/>
<path class="st1" d="M25.3,41l2.7,9.7c0.3,1.2,1.3,2.1,2.6,2.4c1.3,0.2,2.5-0.3,3.3-1.3l18.5-24.1c0.8-1.1,0.9-2.5,0.2-3.7L25,39.9
	L25.3,41z"/>
<linearGradient id="SVGID_2_" gradientUnits="userSpaceOnUse" x1="29.5323" y1="36.3931" x2="31.4" y2="33.9418" gradientTransform="matrix(1 0 0 -1 0 72)">
	<stop  offset="0" style="stop-color:#FED600"/>
	<stop  offset="1" style="stop-color:#FE2323"/>
</linearGradient>
<path class="st2" d="M36.2,33.5c0.3,0.5,0.1,1.1-0.4,1.4L25.3,41l-0.3-1l-0.7-0.8l10.6-6.1C35.3,32.8,35.9,33,36.2,33.5z"/>
<linearGradient id="SVGID_3_" gradientUnits="userSpaceOnUse" x1="30.3254" y1="35.424" x2="31.1849" y2="34.1337" gradientTransform="matrix(1 0 0 -1 0 72)">
	<stop  offset="0" style="stop-color:#FED600"/>
	<stop  offset="1" style="stop-color:#FE2323"/>
</linearGradient>
<path class="st3" d="M25.3,41l10.6-6.1c0.5-0.3,0.7-0.9,0.4-1.4L25,39.9L25.3,41z"/>
</svg>
