<svg xmlns="http://www.w3.org/2000/svg" xmlns:xlink="http://www.w3.org/1999/xlink" viewBox="0 0 13.85 7.95"><defs><style>.a{fill:none;}.b{clip-path:url(#a);}.c{fill:url(#b);}</style><clipPath id="a" transform="translate(-0.02 -1.03)"><rect class="a" width="14" height="10" rx="1"/></clipPath><linearGradient id="b" x1="8.55" y1="2434.38" x2="3.59" y2="2424.22" gradientTransform="translate(14 2434) rotate(180)" gradientUnits="userSpaceOnUse"><stop offset="0" stop-color="#fed600"/><stop offset="1" stop-color="#fe2323"/></linearGradient></defs><g class="b"><path class="c" d="M13.8,2.9a.3.3,0,0,0,0-.4L12.2,1.1a.3.3,0,0,0-.4,0L7.2,5.3a.3.3,0,0,1-.4,0L2.2,1.1a.45.45,0,0,0-.5,0L.1,2.5a.3.3,0,0,0,0,.4l6.6,6a.45.45,0,0,0,.5,0Z" transform="translate(-0.02 -1.03)"/></g></svg>