<svg width="18" height="18" viewBox="0 0 18 18" fill="none" xmlns="http://www.w3.org/2000/svg">
<path d="M6.58496 8.88462C6.86779 9.29391 6.78324 8.95286 6.78324 17.1111C6.78324 17.8411 7.61616 18.259 8.2032 17.8223C10.7117 15.931 11.2129 15.7672 11.2129 14.8826C11.2129 8.93749 11.1436 9.27183 11.4112 8.88462L15.4847 3.33984H2.51147L6.58496 8.88462Z" fill="white"/>
<path d="M17.0235 0.452109C16.878 0.17332 16.5925 0 16.2782 0H1.71807C1.03938 0 0.640039 0.765598 1.02936 1.32187C1.03256 1.32722 0.985168 1.26236 1.7367 2.28516H16.2596C16.9 1.41353 17.3281 1.03693 17.0235 0.452109Z" fill="white"/>
</svg>
