<svg width="26" height="26" viewBox="0 0 26 26" fill="none" xmlns="http://www.w3.org/2000/svg">
<g clip-path="url(#clip0_313:858)">
<path d="M23.0208 0H2.97923C1.33578 0 0 1.33578 0 2.97923V23.0208C0 24.6642 1.33578 26 2.97923 26H23.0208C24.6642 26 26 24.6642 26 23.0208V2.97923C26 1.33578 24.6642 0 23.0208 0V0Z" fill="#CACDD9"/>
<path d="M17.7878 16.2553C18.2113 16.679 18.2113 17.3648 17.7878 17.7873C17.5765 17.9986 17.2992 18.1047 17.0217 18.1047C16.7444 18.1047 16.4671 17.9986 16.2558 17.7873L13.0005 14.5317L9.74511 17.7873C9.53385 17.9986 9.25653 18.1047 8.97922 18.1047C8.70171 18.1047 8.4244 17.9986 8.21314 17.7873C7.78963 17.3648 7.78963 16.679 8.21314 16.2553L11.4687 13L8.21314 9.74462C7.78963 9.32091 7.78963 8.63517 8.21314 8.21265C8.63684 7.78914 9.3214 7.78914 9.74511 8.21265L13.0005 11.4682L16.2558 8.21265C16.6795 7.78914 17.3641 7.78914 17.7878 8.21265C18.2113 8.63517 18.2113 9.32091 17.7878 9.74462L14.5322 13L17.7878 16.2553Z" fill="#FAFAFA"/>
</g>
<defs>
<clipPath id="clip0_313:858">
<rect width="26" height="26" fill="white"/>
</clipPath>
</defs>
</svg>
