<svg width="17" height="17" viewBox="0 0 17 17" fill="none" xmlns="http://www.w3.org/2000/svg">
<path d="M16.1267 6.27697C15.7715 5.85323 15.2867 5.61923 14.7621 5.61923H13.5635C13.4506 2.69103 11.2226 0.347839 8.49998 0.347839C5.77732 0.347839 3.54939 2.69103 3.4365 5.61923H2.23787C1.71326 5.61923 1.2285 5.85323 0.873223 6.27697C0.424981 6.80822 0.262286 7.54817 0.431622 8.25967L1.86932 14.2932C2.08514 15.2039 2.82889 15.8426 3.67557 15.8426H13.3211C14.1678 15.8426 14.9115 15.207 15.1273 14.2932L16.5683 8.25967C16.7377 7.54817 16.575 6.80822 16.1267 6.27697ZM8.49998 1.63802C10.4789 1.63802 12.0992 3.40253 12.2054 5.61923H4.79451C4.90076 3.40569 6.52107 1.63802 8.49998 1.63802ZM15.2469 7.97191L13.8092 14.0086C13.7361 14.3185 13.5269 14.5525 13.3244 14.5525H3.67557C3.47303 14.5525 3.26385 14.3185 3.1908 14.0086L1.75311 7.97191C1.67674 7.65253 1.63025 6.90941 2.23787 6.90941H14.7621C15.4162 6.90941 15.3232 7.65253 15.2469 7.97191Z" fill="white"/>
<path d="M5.13648 8.19327C4.76129 8.19327 4.45914 8.48103 4.45914 8.83836V12.8702C4.45914 13.2275 4.76129 13.5153 5.13648 13.5153C5.51168 13.5153 5.81383 13.2275 5.81383 12.8702V8.83836C5.81715 8.48419 5.51168 8.19327 5.13648 8.19327Z" fill="white"/>
<path d="M8.42036 8.19327C8.04516 8.19327 7.74301 8.48103 7.74301 8.83836V12.8702C7.74301 13.2275 8.04516 13.5153 8.42036 13.5153C8.79556 13.5153 9.09771 13.2275 9.09771 12.8702V8.83836C9.09771 8.48419 8.79224 8.19327 8.42036 8.19327Z" fill="white"/>
<path d="M11.7008 8.19327C11.3256 8.19327 11.0234 8.48103 11.0234 8.83836V12.8702C11.0234 13.2275 11.3256 13.5153 11.7008 13.5153C12.0759 13.5153 12.3781 13.2275 12.3781 12.8702V8.83836C12.3781 8.48419 12.0759 8.19327 11.7008 8.19327Z" fill="white"/>
</svg>
