<?xml version="1.0" encoding="utf-8"?>
<!-- Generator: Adobe Illustrator 24.1.2, SVG Export Plug-In . SVG Version: 6.00 Build 0)  -->
<svg version="1.1" id="Слой_1" xmlns="http://www.w3.org/2000/svg" xmlns:xlink="http://www.w3.org/1999/xlink" x="0px" y="0px"
	 viewBox="0 0 13 13" style="enable-background:new 0 0 13 13;" xml:space="preserve">
<style type="text/css">
	.st0{fill:url(#SVGID_1_);}
	.st1{fill:url(#SVGID_2_);}
</style>
<linearGradient id="SVGID_1_" gradientUnits="userSpaceOnUse" x1="6.3252" y1="3.1273" x2="6.6845" y2="0.5347" gradientTransform="matrix(1 0 0 -1 0 14)">
	<stop  offset="0" style="stop-color:#FED600"/>
	<stop  offset="1" style="stop-color:#FE2323"/>
</linearGradient>
<path class="st0" d="M11.2,11.3H1.8c-0.3,0-0.5,0.2-0.5,0.5v0.7c0,0.3,0.2,0.5,0.5,0.5h9.4c0.3,0,0.5-0.2,0.5-0.5v-0.7
	C11.7,11.5,11.5,11.3,11.2,11.3z"/>
<linearGradient id="SVGID_2_" gradientUnits="userSpaceOnUse" x1="2.7031" y1="12.4586" x2="10.6824" y2="5.0228" gradientTransform="matrix(1 0 0 -1 0 14)">
	<stop  offset="0" style="stop-color:#FED600"/>
	<stop  offset="1" style="stop-color:#FE2323"/>
</linearGradient>
<path class="st1" d="M6.1,10.3c0.1,0.1,0.2,0.2,0.4,0.2c0.1,0,0.3-0.1,0.4-0.2l3.6-3.6c0.2-0.2,0.2-0.5,0-0.7L9.9,5.6
	c-0.2-0.2-0.5-0.2-0.7,0L7.4,7.4V0.5C7.4,0.2,7.1,0,6.8,0H6.2C5.9,0,5.6,0.2,5.6,0.5v6.9L3.8,5.6c-0.2-0.2-0.5-0.2-0.7,0L2.6,6
	c-0.2,0.2-0.2,0.5,0,0.7L6.1,10.3z"/>
</svg>
