<?xml version="1.0" encoding="utf-8"?>
<!-- Generator: Adobe Illustrator 24.1.2, SVG Export Plug-In . SVG Version: 6.00 Build 0)  -->
<svg version="1.1" id="Слой_1" xmlns="http://www.w3.org/2000/svg" xmlns:xlink="http://www.w3.org/1999/xlink" x="0px" y="0px"
	 viewBox="0 0 16 16" style="enable-background:new 0 0 16 16;" xml:space="preserve">
<style type="text/css">
	.st0{fill:#272B3E;}
</style>
<path class="st0" d="M3.3,0H0.7C0.3,0,0,0.3,0,0.7v2.7C0,3.7,0.3,4,0.7,4h2.7C3.7,4,4,3.7,4,3.3V0.7C4,0.3,3.7,0,3.3,0z"/>
<path class="st0" d="M9.3,0H6.7C6.3,0,6,0.3,6,0.7v2.7C6,3.7,6.3,4,6.7,4h2.7C9.7,4,10,3.7,10,3.3V0.7C10,0.3,9.7,0,9.3,0z"/>
<path class="st0" d="M15.3,0h-2.7C12.3,0,12,0.3,12,0.7v2.7C12,3.7,12.3,4,12.7,4h2.7C15.7,4,16,3.7,16,3.3V0.7
	C16,0.3,15.7,0,15.3,0z"/>
<path class="st0" d="M15.3,6h-2.7C12.3,6,12,6.3,12,6.7v2.7c0,0.4,0.3,0.7,0.7,0.7h2.7c0.4,0,0.7-0.3,0.7-0.7V6.7
	C16,6.3,15.7,6,15.3,6z"/>
<path class="st0" d="M9.3,6H6.7C6.3,6,6,6.3,6,6.7v2.7C6,9.7,6.3,10,6.7,10h2.7C9.7,10,10,9.7,10,9.3V6.7C10,6.3,9.7,6,9.3,6z"/>
<path class="st0" d="M3.3,6H0.7C0.3,6,0,6.3,0,6.7v2.7C0,9.7,0.3,10,0.7,10h2.7C3.7,10,4,9.7,4,9.3V6.7C4,6.3,3.7,6,3.3,6z"/>
<path class="st0" d="M3.3,12H0.7C0.3,12,0,12.3,0,12.7v2.7C0,15.7,0.3,16,0.7,16h2.7C3.7,16,4,15.7,4,15.3v-2.7
	C4,12.3,3.7,12,3.3,12z"/>
<path class="st0" d="M9.3,12H6.7C6.3,12,6,12.3,6,12.7v2.7C6,15.7,6.3,16,6.7,16h2.7c0.4,0,0.7-0.3,0.7-0.7v-2.7
	C10,12.3,9.7,12,9.3,12z"/>
<path class="st0" d="M15.3,12h-2.7c-0.4,0-0.7,0.3-0.7,0.7v2.7c0,0.4,0.3,0.7,0.7,0.7h2.7c0.4,0,0.7-0.3,0.7-0.7v-2.7
	C16,12.3,15.7,12,15.3,12z"/>
</svg>
