<?xml version="1.0" encoding="utf-8"?>
<!-- Generator: Adobe Illustrator 24.1.2, SVG Export Plug-In . SVG Version: 6.00 Build 0)  -->
<svg version="1.1" id="Слой_1" xmlns="http://www.w3.org/2000/svg" xmlns:xlink="http://www.w3.org/1999/xlink" x="0px" y="0px"
	 viewBox="0 0 16 16" style="enable-background:new 0 0 16 16;" xml:space="preserve">
<style type="text/css">
	.st0{clip-path:url(#SVGID_2_);}
	.st1{fill:#272B3E;}
</style>
<g>
	<defs>
		<rect id="SVGID_1_" width="16" height="16"/>
	</defs>
	<clipPath id="SVGID_2_">
		<use xlink:href="#SVGID_1_"  style="overflow:visible;"/>
	</clipPath>
	<g class="st0">
		<path class="st1" d="M3.3,0H0.7C0.3,0,0,0.3,0,0.7v2.7C0,3.7,0.3,4,0.7,4h2.7C3.7,4,4,3.7,4,3.3V0.7C4,0.3,3.7,0,3.3,0z"/>
		<path class="st1" d="M15.3,0H6C5.6,0,5.3,0.3,5.3,0.7v2.7C5.3,3.7,5.6,4,6,4h9.3C15.7,4,16,3.7,16,3.3V0.7C16,0.3,15.7,0,15.3,0z"
			/>
		<path class="st1" d="M3.3,6H0.7C0.3,6,0,6.3,0,6.7v2.7C0,9.7,0.3,10,0.7,10h2.7C3.7,10,4,9.7,4,9.3V6.7C4,6.3,3.7,6,3.3,6z"/>
		<path class="st1" d="M15.3,6H6C5.6,6,5.3,6.3,5.3,6.7v2.7C5.3,9.7,5.6,10,6,10h9.3c0.4,0,0.7-0.3,0.7-0.7V6.7
			C16,6.3,15.7,6,15.3,6z"/>
		<path class="st1" d="M3.3,12H0.7C0.3,12,0,12.3,0,12.7v2.7C0,15.7,0.3,16,0.7,16h2.7C3.7,16,4,15.7,4,15.3v-2.7
			C4,12.3,3.7,12,3.3,12z"/>
		<path class="st1" d="M15.3,12H6c-0.4,0-0.7,0.3-0.7,0.7v2.7C5.3,15.7,5.6,16,6,16h9.3c0.4,0,0.7-0.3,0.7-0.7v-2.7
			C16,12.3,15.7,12,15.3,12z"/>
	</g>
</g>
</svg>
