<svg width="18" height="18" viewBox="0 0 18 18" fill="none" xmlns="http://www.w3.org/2000/svg">
<path d="M14.6999 17.7H3.29992C1.64993 17.7 0.299927 16.35 0.299927 14.7V3.30004C0.299927 1.65005 1.64993 0.300049 3.29992 0.300049H14.6999C16.3499 0.300049 17.6999 1.65005 17.6999 3.30004V14.7C17.6999 16.35 16.3499 17.7 14.6999 17.7Z" fill="#424A6F"/>
<path d="M14.7 18H3.30001C1.46999 18 0 16.53 0 14.7V3.30001C0 1.46999 1.46999 0 3.30001 0H14.7C16.53 0 18 1.46999 18 3.30001V14.7C18 16.53 16.53 18 14.7 18ZM3.30001 0.600012C1.8 0.600012 0.600012 1.8 0.600012 3.30001V14.7C0.600012 16.2 1.8 17.4 3.30001 17.4H14.7C16.2 17.4 17.4 16.2 17.4 14.7V3.30001C17.4 1.8 16.2 0.600012 14.7 0.600012H3.30001Z" fill="#424A6F"/>
<path d="M12.9 10.2001C10.74 10.2001 9 8.46013 9 6.30013C9 4.14013 10.74 2.40015 12.9 2.40015C15.06 2.40015 16.8 4.14013 16.8 6.30013C16.8 8.46013 15.06 10.2001 12.9 10.2001Z" fill="white"/>
<path d="M12.9 8.69992C11.5799 8.69992 10.4999 7.61993 10.4999 6.29991C10.4999 4.9799 11.5799 3.8999 12.9 3.8999C14.22 3.8999 15.3 4.9799 15.3 6.29991C15.3 7.61993 14.22 8.69992 12.9 8.69992ZM12.9 4.49991C11.91 4.49991 11.1 5.30991 11.1 6.29991C11.1 7.28991 11.91 8.09991 12.9 8.09991C13.89 8.09991 14.7 7.28991 14.7 6.29991C14.7 5.30991 13.89 4.49991 12.9 4.49991Z" fill="#424A6F"/>
<path d="M6.60005 14.6999C5.73004 14.6999 4.98006 14.1599 4.65005 13.3499L4.41003 12.7199L5.58003 13.1699C6.09004 13.3499 6.66003 13.1399 6.84003 12.6599C7.02003 12.1799 6.72004 11.6399 6.21003 11.4599L5.10004 10.9799L5.70006 10.68C5.97005 10.56 6.27004 10.47 6.60005 10.47C7.77005 10.47 8.70004 11.4 8.70004 12.57C8.70004 13.74 7.77005 14.6999 6.60005 14.6999ZM5.73008 13.7999C5.97009 13.9799 6.27008 14.0999 6.60009 14.0999C7.44008 14.0999 8.1001 13.4399 8.1001 12.5999C8.1001 11.8499 7.5601 11.2199 6.8401 11.1299C7.3801 11.5499 7.62011 12.2399 7.41009 12.8699C7.17008 13.5299 6.45008 13.8899 5.73008 13.7999Z" fill="#424A6F"/>
<path d="M6.84052 8.70003C8.79053 8.82001 10.3805 10.38 10.5005 12.36L13.7405 10.08C13.5005 10.1401 13.2305 10.17 12.9605 10.17C10.8005 10.17 9.06053 8.43006 9.06053 6.27007C9.06053 5.94006 9.12054 5.61008 9.18052 5.31006L6.84052 8.70003Z" fill="white"/>
<path d="M6.60029 9.30005C5.88029 9.30005 5.28028 9.48005 4.74028 9.87004L6.51029 10.62C7.4703 10.98 8.0103 12.03 7.6503 12.96C7.3803 13.68 6.72031 14.13 5.91031 14.13C5.6703 14.13 5.46031 14.1 5.2203 14.01L3.36029 13.2601C3.75028 14.73 5.0403 15.9 6.60029 15.9C8.43028 15.9 9.9003 14.43 9.9003 12.6C9.9003 10.77 8.43031 9.30005 6.60029 9.30005Z" fill="white"/>
<path d="M1.20026 9L6.30027 11.16C6.99028 11.43 7.35028 12.12 7.11027 12.75C6.87026 13.38 6.15026 13.68 5.46028 13.44L1.20029 11.73V9H1.20026Z" fill="white"/>
</svg>
