<svg width="26" height="16" viewBox="0 0 26 16" fill="none" xmlns="http://www.w3.org/2000/svg">
<g clip-path="url(#clip0_126:1661)">
<path d="M26 -0.727295H0V16.7274H26V-0.727295Z" fill="#F0F0F0"/>
<path d="M26 1.4541H0V3.63573H26V1.4541Z" fill="#D80027"/>
<path d="M26 5.81793H0V7.99956H26V5.81793Z" fill="#D80027"/>
<path d="M26 10.1812H0V12.3629H26V10.1812Z" fill="#D80027"/>
<path d="M26 14.545H0V16.7266H26V14.545Z" fill="#D80027"/>
<path d="M13 -0.727295H0V8.67141H13V-0.727295Z" fill="#2E52B2"/>
<path d="M5.06896 3.12271L4.85959 3.77133H4.18237L4.73035 4.17198L4.52098 4.82054L5.06896 4.41989L5.61659 4.82054L5.40727 4.17198L5.95525 3.77133H5.27798L5.06896 3.12271Z" fill="#F0F0F0"/>
<path d="M5.27798 6.11194L5.06896 5.46338L4.85959 6.11194H4.18237L4.73035 6.51265L4.52098 7.16121L5.06896 6.7605L5.61659 7.16121L5.40727 6.51265L5.95525 6.11194H5.27798Z" fill="#F0F0F0"/>
<path d="M2.41597 6.11194L2.2069 5.46338L1.99753 6.11194H1.32031L1.86829 6.51265L1.65892 7.16121L2.2069 6.7605L2.75458 7.16121L2.54526 6.51265L3.09314 6.11194H2.41597Z" fill="#F0F0F0"/>
<path d="M2.2069 3.12271L1.99753 3.77133H1.32031L1.86829 4.17198L1.65892 4.82054L2.2069 4.41989L2.75458 4.82054L2.54526 4.17198L3.09314 3.77133H2.41597L2.2069 3.12271Z" fill="#F0F0F0"/>
<path d="M5.06896 0.781982L4.85959 1.43064H4.18237L4.73035 1.83135L4.52098 2.4799L5.06896 2.0792L5.61659 2.4799L5.40727 1.83135L5.95525 1.43064H5.27798L5.06896 0.781982Z" fill="#F0F0F0"/>
<path d="M2.2069 0.781982L1.99753 1.43064H1.32031L1.86829 1.83135L1.65892 2.4799L2.2069 2.0792L2.75458 2.4799L2.54526 1.83135L3.09314 1.43064H2.41597L2.2069 0.781982Z" fill="#F0F0F0"/>
<path d="M7.93122 3.12271L7.7219 3.77133H7.04468L7.59261 4.17198L7.38334 4.82054L7.93122 4.41989L8.47894 4.82054L8.26957 4.17198L8.81755 3.77133H8.14033L7.93122 3.12271Z" fill="#F0F0F0"/>
<path d="M8.14033 6.11194L7.93122 5.46338L7.7219 6.11194H7.04468L7.59261 6.51265L7.38334 7.16121L7.93122 6.7605L8.47894 7.16121L8.26957 6.51265L8.81755 6.11194H8.14033Z" fill="#F0F0F0"/>
<path d="M11.0023 6.11194L10.7933 5.46338L10.5839 6.11194H9.90674L10.4546 6.51265L10.2453 7.16121L10.7933 6.7605L11.341 7.16121L11.1316 6.51265L11.6796 6.11194H11.0023Z" fill="#F0F0F0"/>
<path d="M10.7933 3.12271L10.5839 3.77133H9.90674L10.4546 4.17198L10.2453 4.82054L10.7933 4.41989L11.341 4.82054L11.1316 4.17198L11.6796 3.77133H11.0023L10.7933 3.12271Z" fill="#F0F0F0"/>
<path d="M7.93122 0.781982L7.7219 1.43064H7.04468L7.59261 1.83135L7.38334 2.4799L7.93122 2.0792L8.47894 2.4799L8.26957 1.83135L8.81755 1.43064H8.14033L7.93122 0.781982Z" fill="#F0F0F0"/>
<path d="M10.7933 0.781982L10.5839 1.43064H9.90674L10.4546 1.83135L10.2453 2.4799L10.7933 2.0792L11.341 2.4799L11.1316 1.83135L11.6796 1.43064H11.0023L10.7933 0.781982Z" fill="#F0F0F0"/>
</g>
<defs>
<clipPath id="clip0_126:1661">
<rect width="26" height="16" rx="2" fill="white"/>
</clipPath>
</defs>
</svg>
