<svg width="40" height="40" viewBox="0 0 40 40" fill="none" xmlns="http://www.w3.org/2000/svg">
<g clip-path="url(#clip0_66:322)">
<path d="M36.8694 37.5765H3.13072C0.71799 37.5765 -0.786072 34.9611 0.43135 32.8754L17.3006 3.97436C18.5059 1.90951 21.492 1.90576 22.6994 3.97436L39.5687 32.8755C40.785 34.9592 39.2843 37.5765 36.8694 37.5765Z" fill="#FF6B6B"/>
<path d="M19.5921 5.31148L2.72285 34.2126C2.5384 34.5287 2.76442 34.9234 3.13106 34.9234H36.8697C37.2357 34.9234 37.4628 34.5292 37.2779 34.2126L20.4086 5.31148C20.226 4.99867 19.7758 4.9968 19.5921 5.31148Z" fill="#EE5253"/>
<path d="M20.0086 27.979C20.7883 27.979 21.4469 28.6278 21.4469 29.3957C21.4469 30.1535 20.7883 30.7938 20.0086 30.7938C19.2062 30.7938 18.5533 30.1666 18.5533 29.3957C18.5533 28.6278 19.2198 27.979 20.0086 27.979Z" fill="#E4EAF8"/>
<path d="M20.0086 25.7916C19.2016 25.7916 18.638 25.4008 18.638 24.8411V16.939C18.638 16.4711 19.1888 15.97 20.0086 15.97C20.7478 15.97 21.3962 16.4229 21.3962 16.939V24.8411C21.3962 25.3918 20.8127 25.7916 20.0086 25.7916Z" fill="#E4EAF8"/>
<path d="M2.04114 32.8755L18.9104 3.97438C19.3373 3.24305 20.0157 2.73414 20.805 2.5275C19.4892 2.18305 18.0431 2.70235 17.3007 3.97438L0.43137 32.8755C-0.784958 34.9591 0.715823 37.5766 3.13075 37.5766H4.74051C2.32762 37.5766 0.823792 34.9609 2.04114 32.8755Z" fill="#EE5253"/>
<path d="M4.3321 34.2126L20.8048 5.99109L20.4081 5.31148C20.2252 4.99805 19.775 4.99742 19.5916 5.31148L2.72234 34.2126C2.53781 34.5287 2.7639 34.9234 3.13054 34.9234H4.74031C4.37429 34.9235 4.14726 34.5293 4.3321 34.2126Z" fill="#E24951"/>
<path d="M20.1632 29.3957C20.1632 28.9168 20.4225 28.4844 20.8089 28.2266C20.5784 28.071 20.3021 27.979 20.0087 27.979C19.2199 27.979 18.5535 28.6278 18.5535 29.3957C18.5535 30.1667 19.2063 30.7938 20.0087 30.7938C20.2998 30.7938 20.5739 30.7045 20.8032 30.5532C20.4172 30.3015 20.1632 29.8767 20.1632 29.3957Z" fill="#D8DCE5"/>
<path d="M20.6098 24.8712V16.9691C20.6098 16.6803 20.8199 16.3794 21.173 16.1909C20.943 16.0723 20.6644 16 20.3706 16C19.5508 16 19 16.5011 19 16.9691V24.8712C19 25.4308 19.5636 25.8216 20.3706 25.8216C20.678 25.8216 20.9526 25.7629 21.1752 25.66C20.8235 25.4951 20.6098 25.2152 20.6098 24.8712Z" fill="#D8DCE5"/>
</g>
<defs>
<clipPath id="clip0_66:322">
<rect width="40" height="40" fill="white"/>
</clipPath>
</defs>
</svg>
