<svg width="19" height="19" viewBox="0 0 19 19" fill="none" xmlns="http://www.w3.org/2000/svg">
<g clip-path="url(#clip0_151:9)">
<path d="M17.3013 5.43295C14.7917 1.30989 11.0113 4.17835 11.0113 4.17835C10.7661 4.36366 10.314 4.51601 10.0068 4.51672L8.99421 4.51742C8.68702 4.51778 8.23493 4.36543 7.9901 4.18013C7.9901 4.18013 4.20931 1.31096 1.6994 5.43401C-0.809789 9.55565 0.2014 14.0444 0.2014 14.0444C0.378553 15.1434 0.962449 15.8768 2.06434 15.7847C3.16304 15.6929 5.54787 12.8248 5.54787 12.8248C5.74487 12.5885 6.15763 12.3954 6.46411 12.3954L12.5348 12.3944C12.8416 12.3944 13.254 12.5874 13.4507 12.8238C13.4507 12.8238 15.8358 15.6919 16.9363 15.7836C18.0368 15.8758 18.6221 15.1416 18.7982 14.0433C18.7978 14.0433 19.8108 9.5553 17.3013 5.43295ZM7.21878 8.78894H5.91706V10.0435C5.91706 10.0435 5.64141 10.254 5.21483 10.2487C4.78895 10.2423 4.59621 10.0191 4.59621 10.0191V8.78929H3.36677C3.36677 8.78929 3.21335 8.63198 3.17225 8.21779C3.13186 7.80361 3.34197 7.46879 3.34197 7.46879H4.64404V6.16707C4.64404 6.16707 4.91189 6.02358 5.29702 6.03456C5.68251 6.04661 5.96489 6.19152 5.96489 6.19152L5.95958 7.46844H7.18902C7.18902 7.46844 7.40373 7.74409 7.42144 8.07714C7.43916 8.41054 7.21878 8.78894 7.21878 8.78894ZM13.1895 10.2189C12.6195 10.2189 12.1599 9.75796 12.1599 9.18859C12.1599 8.61816 12.6195 8.15827 13.1895 8.15827C13.7571 8.15827 14.2202 8.61816 14.2202 9.18859C14.2202 9.75832 13.7571 10.2189 13.1895 10.2189ZM13.1895 7.38411C12.6195 7.38411 12.1599 6.92352 12.1599 6.35415C12.1599 5.78371 12.6195 5.32382 13.1895 5.32382C13.7571 5.32382 14.2202 5.78371 14.2202 6.35415C14.2202 6.92387 13.7571 7.38411 13.1895 7.38411ZM15.7554 8.90586C15.1853 8.90586 14.7258 8.44526 14.7258 7.87554C14.7258 7.30546 15.1853 6.84521 15.7554 6.84521C16.323 6.84521 16.7861 7.30546 16.7861 7.87554C16.7861 8.44526 16.323 8.90586 15.7554 8.90586Z" fill="#272B3E"/>
</g>
<defs>
<clipPath id="clip0_151:9">
<rect width="19" height="19" fill="white"/>
</clipPath>
</defs>
</svg>
