<svg width="19" height="19" viewBox="0 0 19 19" fill="none" xmlns="http://www.w3.org/2000/svg">
<path d="M17.3908 4.21421L17.1065 4.30432L15.5927 4.43919L15.1652 5.12199L14.8549 5.02341L13.6502 3.93722L13.4754 3.37234L13.2413 2.76998L12.4841 2.0908L11.5909 1.91602L11.5703 2.32485L12.4454 3.17881L12.8736 3.6832L12.3922 3.9348L12.0003 3.81928L11.4131 3.57434L11.433 3.10079L10.6625 2.78389L10.4067 3.8973L9.63014 4.07329L9.70695 4.69441L10.7188 4.88915L10.8935 3.89669L11.7288 4.02007L12.117 4.24747H12.74L13.1663 5.10143L14.2967 6.24811L14.2138 6.69384L13.3024 6.57772L11.7275 7.37301L10.5936 8.73318L10.446 9.33555H10.039L9.28058 8.98598L8.54395 9.33555L8.7272 10.1127L9.04773 9.74317L9.6114 9.72563L9.57208 10.4236L10.039 10.5602L10.5053 11.084L11.2667 10.8699L12.1364 11.0072L13.1464 11.2787L13.6508 11.338L14.5059 12.3087L16.1564 13.2794L15.089 15.3187L13.9622 15.8425L13.5347 17.0079L11.9041 18.0965L11.7306 18.7243C15.8988 17.7203 18.9995 13.9761 18.9995 9.49944C18.9983 7.54417 18.4056 5.72436 17.3908 4.21421Z" fill="#272B3E"/>
<path d="M10.5929 14.4646L9.901 13.1819L10.536 11.8586L9.901 11.6687L9.18795 10.9526L7.60825 10.5982L7.0839 9.50113V10.1525H6.85287L5.49149 8.30667V6.79047L4.49359 5.16783L2.90905 5.45026H1.8416L1.30455 5.09827L1.98977 4.55518L1.30636 4.71303C0.482643 6.11976 0.00244141 7.75208 0.00244141 9.50052C0.00244141 14.7458 4.2547 18.9999 9.50063 18.9999C9.90462 18.9999 10.3008 18.9642 10.6927 18.9171L10.5935 17.7662C10.5935 17.7662 11.0295 16.057 11.0295 15.999C11.0289 15.9403 10.5929 14.4646 10.5929 14.4646Z" fill="#272B3E"/>
<path d="M3.53195 3.06325L5.2193 2.82799L5.99706 2.40161L6.87219 2.65381L8.27046 2.57639L8.74945 1.82343L9.44798 1.93834L11.1444 1.77928L11.6119 1.26401L12.2711 0.82372L13.2037 0.964031L13.5436 0.912624C12.3153 0.334447 10.9485 0 9.49999 0C6.55165 0 3.91538 1.34384 2.1748 3.45394H2.17964L3.53195 3.06325ZM9.90157 0.944678L10.8716 0.410651L11.4946 0.770499L10.5928 1.45693L9.73162 1.54342L9.34395 1.29183L9.90157 0.944678ZM7.02822 1.0227L7.45641 1.20111L8.01705 1.0227L8.32247 1.55188L7.02822 1.89177L6.4059 1.52769C6.40529 1.52769 7.01431 1.13579 7.02822 1.0227Z" fill="#272B3E"/>
</svg>
