<svg width="19" height="19" viewBox="0 0 19 19" fill="none" xmlns="http://www.w3.org/2000/svg">
<path d="M13.411 9.91665L13.0847 4.3313H10.4508V6.83934H9.33757V4.3313H5.04998V6.83934H3.93675V4.3313H1.30284L0.717836 14.3457C0.672305 15.1254 0.942375 15.8678 1.47832 16.4359C2.01427 17.0041 2.73958 17.317 3.52062 17.317H9.69577C9.33545 16.6154 9.13195 15.8206 9.13195 14.9792C9.13195 12.4395 10.9856 10.325 13.411 9.91665Z" fill="#272B3E"/>
<path d="M5.04976 3.25699C5.04976 2.07492 6.01144 1.11323 7.19351 1.11323C8.37558 1.11323 9.3373 2.07492 9.3373 3.25699V4.33122H10.4505V3.25699C10.4505 1.46108 8.98945 0 7.19351 0C5.39757 0 3.93652 1.46108 3.93652 3.25699V4.33122H5.04976V3.25699Z" fill="#272B3E"/>
<path d="M18.2869 14.9791C18.2869 12.762 16.4831 10.9583 14.266 10.9583C12.0489 10.9583 10.2451 12.762 10.2451 14.9791C10.2451 17.1963 12.0489 19 14.266 19C16.4831 19 18.2869 17.1963 18.2869 14.9791ZM13.664 16.9484L11.8559 14.9035L12.6899 14.1661L13.6999 15.3084L15.7916 13.1418L16.5925 13.915L13.664 16.9484Z" fill="#272B3E"/>
</svg>
