<?xml version="1.0" encoding="utf-8"?>
<!-- Generator: Adobe Illustrator 24.1.2, SVG Export Plug-In . SVG Version: 6.00 Build 0)  -->
<svg version="1.1" id="Слой_1" xmlns="http://www.w3.org/2000/svg" xmlns:xlink="http://www.w3.org/1999/xlink" x="0px" y="0px"
	 viewBox="0 0 19 19" style="enable-background:new 0 0 19 19;" xml:space="preserve">
<style type="text/css">
	.st0{clip-path:url(#SVGID_2_);}
	.st1{fill:#272B3E;}
</style>
<g>
	<defs>
		<rect id="SVGID_1_" x="1" y="1" width="17" height="17"/>
	</defs>
	<clipPath id="SVGID_2_">
		<use xlink:href="#SVGID_1_"  style="overflow:visible;"/>
	</clipPath>
	<g class="st0">
		<path class="st1" d="M8.4,6.9L7.7,7.6l0.7,0.7L7.6,9.2C5.9,8.3,3.7,8.6,2.3,10c-1.8,1.8-1.8,4.6,0,6.3c1.8,1.8,4.6,1.8,6.3,0
			c1.4-1.4,1.7-3.6,0.8-5.3l0.8-0.8l0.7,0.7l0.7-0.7L8.4,6.9z M7.2,14.9c-1,1-2.5,1-3.5,0s-1-2.5,0-3.5c1-1,2.5-1,3.5,0
			C8.2,12.4,8.2,14,7.2,14.9z"/>
		<path class="st1" d="M17.3,6L18,5.3l-1.4-1.4l0.7-0.7l-1.9-1.9L9.8,6.9l1.9,1.9l2.5-2.5l1.4,1.4L16.4,7l-0.7-0.7l0.9-0.9L17.3,6z"
			/>
	</g>
</g>
</svg>
