<svg width="16" height="12" viewBox="0 0 16 12" fill="none" xmlns="http://www.w3.org/2000/svg">
<path d="M7.2156 5.92091C7.63339 6.18949 8.36646 6.18952 8.78433 5.92088C8.7844 5.92085 8.78449 5.92079 8.78455 5.92076L15.9054 1.34304C15.6718 0.691662 15.0298 0.222412 14.2759 0.222412H1.72387C0.96996 0.222412 0.327986 0.691662 0.0943909 1.34304L7.21538 5.92079C7.21548 5.92085 7.21554 5.92085 7.2156 5.92091Z" fill="#D8E0EB"/>
<path d="M9.30464 6.67284C9.30454 6.6729 9.30448 6.67296 9.30442 6.67299C8.93873 6.90806 8.46929 7.02562 8 7.02562C7.53062 7.02562 7.06137 6.90809 6.69565 6.67296C6.69558 6.67293 6.69555 6.6729 6.69549 6.67287L0 2.36865V10.1153C0 11.0319 0.77335 11.7776 1.72395 11.7776H14.2761C15.2267 11.7776 16 11.0319 16 10.1153V2.36865L9.30464 6.67284Z" fill="#D8E0EB"/>
</svg>
