<svg width="20" height="20" viewBox="0 0 20 20" fill="none" xmlns="http://www.w3.org/2000/svg">
<path d="M16.7112 5.06242C16.6841 5.01992 16.6533 4.98658 16.6129 4.95617C16.2925 4.71533 14.6666 3.56492 12.5858 3.34158C12.5816 3.34117 12.5658 3.34033 12.5621 3.34033C12.5212 3.34033 12.4858 3.36408 12.4687 3.39867L12.3566 3.62283H12.3562C12.3491 3.63658 12.3454 3.65242 12.3454 3.66908C12.3454 3.7145 12.3746 3.75325 12.4154 3.76742C12.4179 3.76825 12.4354 3.772 12.4416 3.77325C14.2196 4.20158 15.3012 4.97742 16.2537 5.83367C14.5675 4.97283 12.9021 4.16658 9.99997 4.16658C7.09789 4.16658 5.43289 4.97325 3.74622 5.83367C4.69872 4.97742 5.78039 4.20158 7.5583 3.77325C7.56455 3.77158 7.58205 3.76825 7.58455 3.76742C7.62539 3.75325 7.65455 3.7145 7.65455 3.66908C7.65455 3.65242 7.6508 3.63658 7.64372 3.62283H7.6433L7.53122 3.39867C7.51414 3.36408 7.47914 3.34033 7.43789 3.34033C7.43414 3.34033 7.41789 3.34117 7.41414 3.34158C5.3333 3.56492 3.70747 4.71533 3.38705 4.95617C3.34664 4.98658 3.31622 5.01992 3.28872 5.06242C2.99372 5.52367 1.18497 8.55742 0.833721 14.0758C0.829971 14.1349 0.850388 14.1962 0.889971 14.2403C2.8033 16.3837 5.54914 16.637 6.13497 16.6666C6.20455 16.6699 6.27122 16.6395 6.31289 16.5837L6.84705 15.8716C6.88872 15.8158 6.86622 15.7374 6.8008 15.7137C5.67372 15.3028 4.41872 14.5887 3.32914 13.3362C4.67955 14.357 6.71664 15.4166 9.99997 15.4166C13.2833 15.4166 15.3204 14.357 16.6704 13.3362C15.5804 14.5887 14.3258 15.3024 13.1987 15.7137C13.1333 15.7374 13.1108 15.8158 13.1525 15.8716L13.6866 16.5837C13.7287 16.6395 13.795 16.6703 13.8646 16.6666C14.4508 16.6366 17.1962 16.3837 19.1096 14.2403C19.1491 14.1962 19.1696 14.1349 19.1658 14.0758C18.815 8.55742 17.0062 5.52367 16.7112 5.06242Z" fill="#D8E0EB"/>
<path d="M12.5 12C13.3284 12 14 11.3284 14 10.5C14 9.67157 13.3284 9 12.5 9C11.6716 9 11 9.67157 11 10.5C11 11.3284 11.6716 12 12.5 12Z" fill="#383E57"/>
<path d="M7.5 12C8.32843 12 9 11.3284 9 10.5C9 9.67157 8.32843 9 7.5 9C6.67157 9 6 9.67157 6 10.5C6 11.3284 6.67157 12 7.5 12Z" fill="#383E57"/>
</svg>
