<svg width="9" height="8" viewBox="0 0 9 8" fill="none" xmlns="http://www.w3.org/2000/svg">
<g clip-path="url(#clip0_12679:294)">
<path d="M5 4.00001C5 4.14339 4.93998 4.28675 4.82018 4.39606L1.0486 7.83589C0.808678 8.0547 0.419689 8.0547 0.179867 7.83589C-0.0599556 7.61716 -0.0599557 7.26245 0.179867 7.04362L3.51717 4.00001L0.179983 0.956393C-0.0598394 0.737575 -0.0598394 0.382905 0.179983 0.164194C0.419806 -0.0547304 0.808794 -0.0547305 1.04871 0.164194L4.8203 3.60397C4.94011 3.71333 5 3.85669 5 4.00001Z" fill="#D8D8D8"/>
</g>
<g clip-path="url(#clip1_12679:294)">
<path d="M9 4.00001C9 4.14339 8.93998 4.28675 8.82018 4.39606L5.0486 7.83589C4.80868 8.0547 4.41969 8.0547 4.17987 7.83589C3.94004 7.61716 3.94004 7.26245 4.17987 7.04362L7.51717 4.00001L4.17998 0.956393C3.94016 0.737575 3.94016 0.382905 4.17998 0.164194C4.41981 -0.0547304 4.80879 -0.0547305 5.04871 0.164194L8.8203 3.60397C8.94011 3.71333 9 3.85669 9 4.00001Z" fill="#D8D8D8"/>
</g>
<defs>
<clipPath id="clip0_12679:294">
<rect width="8" height="5" fill="white" transform="translate(0 8) rotate(-90)"/>
</clipPath>
<clipPath id="clip1_12679:294">
<rect width="8" height="5" fill="white" transform="translate(4 8) rotate(-90)"/>
</clipPath>
</defs>
</svg>
