<svg width="34" height="34" viewBox="0 0 34 34" fill="none" xmlns="http://www.w3.org/2000/svg">
<g clip-path="url(#clip0_238:74)">
<path d="M17 34C12.6164 31.4975 2.05859 23.9534 2.05859 8.91438V4.05742H3.05469C5.35719 4.14886 10.932 4.0466 16.4475 0.368688L17 0L17.5525 0.368688C23.0748 4.05052 28.6632 4.13917 30.7955 4.06134L31.9414 4.05078V8.91438C31.9414 26.6703 17.1999 33.8005 17 34Z" fill="#F0F7FF"/>
<path d="M31.9414 8.91438V4.05078L30.7955 4.06134C28.6633 4.13917 23.0748 4.05052 17.5525 0.368688L17 0V34C17.1999 33.8004 31.9414 26.6701 31.9414 8.91438Z" fill="#C7CFE1"/>
<path d="M17 29.4431C16.8262 29.2439 6.04297 22.8082 6.04297 8.91425V8.02614L6.92524 7.86464C10.3026 7.47457 13.5331 6.45709 16.5263 4.83844L17 4.58264L17.4737 4.8385C20.4669 6.45716 23.6974 7.47463 27.0748 7.8647L27.957 7.96591V8.85402C27.957 22.4805 17.1825 29.234 17 29.4431Z" fill="#7ED8F6"/>
<path d="M27.957 8.85402V7.96591L27.0748 7.86477C23.6974 7.4747 20.4669 6.45722 17.4737 4.83857L17 4.58264V29.4431C17.1825 29.2339 27.957 22.4805 27.957 8.85402Z" fill="#4895FF"/>
<path d="M16.004 20.4073L12.3115 16.7148L13.72 15.3063L16.004 17.5903L21.2764 12.318L22.6848 13.7265L16.004 20.4073Z" fill="#F0F7FF"/>
<path d="M17 19.4112L22.6847 13.7265L21.2762 12.318L17 16.5942V19.4112Z" fill="#C7CFE1"/>
</g>
<defs>
<clipPath id="clip0_238:74">
<rect width="34" height="34" fill="white"/>
</clipPath>
</defs>
</svg>
