<svg width="30" height="33" viewBox="0 0 30 33" fill="none" xmlns="http://www.w3.org/2000/svg">
<g clip-path="url(#clip0_235:1386)">
<path d="M23.6144 17.3947L20.958 19.8662L23.3565 22.6L26.0129 20.1284L23.6144 17.3947Z" fill="#027DC5"/>
<path d="M18.3208 19.6184L14.7783 22.9022L17.9687 26.552L21.5112 23.2682L18.3208 19.6184Z" fill="#027DC5"/>
<path d="M28.4052 16.5248L26.6357 18.1671L28.2306 19.9893L30.0001 18.3469L28.4052 16.5248Z" fill="#027DC5"/>
<path d="M18.8924 6.11953L16.2334 8.58435L18.6269 11.3225L21.2859 8.85773L18.8924 6.11953Z" fill="#027DC5"/>
<path d="M26.1399 11.0795L24.374 12.7225L25.971 14.5427L27.7369 12.8997L26.1399 11.0795Z" fill="#027DC5"/>
<path d="M15.8076 13.2957L12.2617 16.5826L15.4521 20.2324L18.9979 16.9455L15.8076 13.2957Z" fill="#027DC5"/>
<path d="M13.2737 7.0763L9.72949 10.3617L12.9199 14.0115L16.4641 10.7261L13.2737 7.0763Z" fill="#027DC5"/>
<path d="M21.334 11.6261L18.6816 14.0914L21.0803 16.828L23.7327 14.3627L21.334 11.6261Z" fill="#027DC5"/>
<path d="M23.8661 5.66721L22.0967 7.30957L23.6915 9.13174L25.461 7.48938L23.8661 5.66721Z" fill="#027DC5"/>
<path d="M25.9558 22.9268L23.2979 25.3931L25.6943 28.1319L28.3523 25.6656L25.9558 22.9268Z" fill="#027DC5"/>
<path d="M21.2929 26.0292L17.8286 29.3187L11.9798 22.6159L13.6065 21.1417L9.51148 16.42L11.1472 14.9435L6.99094 10.2265L13.4772 4.2129L15.5372 6.53518L19.0151 3.33912L21.0706 5.53291L22.4409 4.26897C22.1346 4.08674 21.8284 3.91852 21.5175 3.76666C19.5415 2.7714 17.3227 2.21069 14.9859 2.21069C6.77995 2.21069 0.0849609 9.10277 0.0849609 17.5555C0.0849609 26.0059 6.77995 32.898 14.9859 32.898C17.6516 32.898 20.1631 32.1714 22.3297 30.8981C23.0444 30.4822 23.6955 30.0313 24.2899 29.5571L21.2929 26.0292Z" fill="#027DC5"/>
</g>
<defs>
<clipPath id="clip0_235:1386">
<rect width="30" height="33" fill="white"/>
</clipPath>
</defs>
</svg>
